ffmpeg started on 2016-11-29 at 19:49:25
Report written to "Output/x264/results/ffmpeg/old_town_cross_2160p50veryfast8000k.log"
Command line:
Tools/ffmpeg/ffmpeg -benchmark -y -i Input/y4m/old_town_cross_2160p50.y4m -c:v libx264 -preset veryfast -b:v 8000k -an Output/x264/encoded/old_town_cross_2160p50veryfast8000k.mkv
ffmpeg version N-82227-gdb23fde Copyright (c) 2000-2016 the FFmpeg developers
  built with gcc 5.4.0 (Ubuntu 5.4.0-6ubuntu1~16.04.2) 20160609
  configuration: --prefix=/home/jaroslav/ffmpeg_build --pkg-config-flags=--static --extra-cflags=-I/home/jaroslav/ffmpeg_build/include --extra-ldflags=-L/home/jaroslav/ffmpeg_build/lib --bindir=/home/jaroslav/bin --enable-gpl --enable-libass --enable-libfdk-aac --enable-libfreetype --enable-libmp3lame --enable-libopus --enable-libtheora --enable-libvorbis --enable-libvpx --enable-libx264 --enable-libx265 --enable-nvenc --enable-libmfx --enable-libxvid --enable-libgsm --enable-libopencore-amrnb --enable-version3 --enable-nonfree
  libavutil      55. 35.100 / 55. 35.100
  libavcodec     57. 66.101 / 57. 66.101
  libavformat    57. 57.100 / 57. 57.100
  libavdevice    57.  2.100 / 57.  2.100
  libavfilter     6. 66.100 /  6. 66.100
  libswscale      4.  3.100 /  4.  3.100
  libswresample   2.  4.100 /  2.  4.100
  libpostproc    54.  2.100 / 54.  2.100
Input #0, yuv4mpegpipe, from 'Input/y4m/old_town_cross_2160p50.y4m':
  Duration: 00:00:10.00, start: 0.000000, bitrate: 4976642 kb/s
    Stream #0:0: Video: rawvideo (I420 / 0x30323449), yuv420p(progressive), 3840x2160, SAR 1:1 DAR 16:9, 50 fps, 50 tbr, 50 tbn, 50 tbc
[libx264 @ 0x35ac120] using SAR=1/1
[libx264 @ 0x35ac120] using cpu capabilities: MMX2 SSE2Fast SSSE3 SSE4.2 AVX FMA3 AVX2 LZCNT BMI2
[libx264 @ 0x35ac120] profile High, level 5.2
[libx264 @ 0x35ac120] 264 - core 148 - H.264/MPEG-4 AVC codec - Copyleft 2003-2016 - http://www.videolan.org/x264.html - options: cabac=1 ref=1 deblock=1:0:0 analyse=0x3:0x113 me=hex subme=2 psy=1 psy_rd=1.00:0.00 mixed_ref=0 me_range=16 chroma_me=1 trellis=0 8x8dct=1 cqm=0 deadzone=21,11 fast_pskip=1 chroma_qp_offset=0 threads=6 lookahead_threads=2 sliced_threads=0 nr=0 decimate=1 interlaced=0 bluray_compat=0 constrained_intra=0 bframes=3 b_pyramid=2 b_adapt=1 b_bias=0 direct=1 weightb=1 open_gop=0 weightp=1 keyint=250 keyint_min=25 scenecut=40 intra_refresh=0 rc_lookahead=10 rc=abr mbtree=1 bitrate=8000 ratetol=1.0 qcomp=0.60 qpmin=0 qpmax=69 qpstep=4 ip_ratio=1.40 aq=1:1.00
Output #0, matroska, to 'Output/x264/encoded/old_town_cross_2160p50veryfast8000k.mkv':
  Metadata:
    encoder         : Lavf57.57.100
    Stream #0:0: Video: h264 (libx264) (H264 / 0x34363248), yuv420p, 3840x2160 [SAR 1:1 DAR 16:9], q=-1--1, 8000 kb/s, 50 fps, 1k tbn, 50 tbc
    Metadata:
      encoder         : Lavc57.66.101 libx264
    Side data:
      cpb: bitrate max/min/avg: 0/0/8000000 buffer size: 0 vbv_delay: -1
Stream mapping:
  Stream #0:0 -> #0:0 (rawvideo (native) -> h264 (libx264))
Press [q] to stop, [?] for help
frame=   22 fps=0.0 q=36.0 size=       1kB time=-00:00:00.01 bitrate=N/A speed=N/A    frame=   38 fps= 34 q=36.0 size=       1kB time=00:00:00.30 bitrate=  19.5kbits/s speed=0.266x    frame=   54 fps= 32 q=33.0 size=       1kB time=00:00:00.62 bitrate=   9.4kbits/s speed=0.368x    frame=   70 fps= 31 q=33.0 size=       1kB time=00:00:00.94 bitrate=   6.2kbits/s speed=0.42x    frame=   86 fps= 31 q=33.0 size=       1kB time=00:00:01.26 bitrate=   4.7kbits/s speed=0.447x    frame=  102 fps= 30 q=33.0 size=       1kB time=00:00:01.58 bitrate=   3.7kbits/s speed=0.469x    frame=  118 fps= 30 q=33.0 size=       1kB time=00:00:01.90 bitrate=   3.1kbits/s speed=0.486x    frame=  134 fps= 30 q=33.0 size=       1kB time=00:00:02.22 bitrate=   2.6kbits/s speed= 0.5x    frame=  150 fps= 30 q=33.0 size=       1kB time=00:00:02.54 bitrate=   2.3kbits/s speed=0.51x    frame=  166 fps= 30 q=33.0 size=       1kB time=00:00:02.86 bitrate=   2.0kbits/s speed=0.517x    frame=  182 fps= 30 q=33.0 size=       1kB time=00:00:03.18 bitrate=   1.8kbits/s speed=0.523x    frame=  198 fps= 30 q=33.0 size=       1kB time=00:00:03.50 bitrate=   1.7kbits/s speed=0.529x    frame=  214 fps= 30 q=33.0 size=       1kB time=00:00:03.82 bitrate=   1.5kbits/s speed=0.533x    frame=  230 fps= 30 q=33.0 size=       1kB time=00:00:04.14 bitrate=   1.4kbits/s speed=0.536x    frame=  236 fps= 29 q=33.0 size=       1kB time=00:00:04.26 bitrate=   1.4kbits/s speed=0.515x    frame=  244 fps= 28 q=34.0 size=       1kB time=00:00:04.42 bitrate=   1.3kbits/s speed=0.503x    frame=  252 fps= 27 q=34.0 size=       1kB time=00:00:04.58 bitrate=   1.3kbits/s speed=0.493x    frame=  260 fps= 27 q=34.0 size=       1kB time=00:00:04.74 bitrate=   1.2kbits/s speed=0.484x    frame=  271 fps= 26 q=35.0 size=    4907kB time=00:00:04.96 bitrate=8103.6kbits/s speed=0.479x    frame=  287 fps= 26 q=35.0 size=    4907kB time=00:00:05.28 bitrate=7612.5kbits/s speed=0.485x    frame=  303 fps= 26 q=34.0 size=    4907kB time=00:00:05.60 bitrate=7177.6kbits/s speed=0.489x    frame=  319 fps= 27 q=34.0 size=    4907kB time=00:00:05.92 bitrate=6789.7kbits/s speed=0.493x    frame=  335 fps= 27 q=34.0 size=    4907kB time=00:00:06.24 bitrate=6441.6kbits/s speed=0.497x    frame=  351 fps= 27 q=34.0 size=    4907kB time=00:00:06.56 bitrate=6127.4kbits/s speed=0.501x    frame=  367 fps= 27 q=33.0 size=    4907kB time=00:00:06.88 bitrate=5842.4kbits/s speed=0.504x    frame=  383 fps= 27 q=33.0 size=    4907kB time=00:00:07.20 bitrate=5582.8kbits/s speed=0.507x    frame=  399 fps= 27 q=33.0 size=    4907kB time=00:00:07.52 bitrate=5345.3kbits/s speed=0.509x    frame=  415 fps= 27 q=33.0 size=    4907kB time=00:00:07.84 bitrate=5127.1kbits/s speed=0.512x    frame=  431 fps= 27 q=33.0 size=    4907kB time=00:00:08.16 bitrate=4926.1kbits/s speed=0.515x    frame=  447 fps= 27 q=33.0 size=    4907kB time=00:00:08.48 bitrate=4740.2kbits/s speed=0.517x    frame=  463 fps= 27 q=33.0 size=    4907kB time=00:00:08.80 bitrate=4567.9kbits/s speed=0.519x    frame=  474 fps= 27 q=33.0 size=    4907kB time=00:00:09.02 bitrate=4456.5kbits/s speed=0.514x    frame=  481 fps= 27 q=34.0 size=    4907kB time=00:00:09.16 bitrate=4388.4kbits/s speed=0.507x    frame=  489 fps= 26 q=34.0 size=    4907kB time=00:00:09.32 bitrate=4313.0kbits/s speed=0.502x    frame=  497 fps= 26 q=34.0 size=    4907kB time=00:00:09.48 bitrate=4240.3kbits/s speed=0.497x    frame=  500 fps= 25 q=-1.0 Lsize=   10157kB time=00:00:09.94 bitrate=8370.0kbits/s speed=0.499x    
video:10153kB audio:0kB subtitle:0kB other streams:0kB global headers:0kB muxing overhead: 0.043727%
bench: utime=65.644s
bench: maxrss=1090628kB
[libx264 @ 0x35ac120] frame I:3     Avg QP:30.38  size:336514
[libx264 @ 0x35ac120] frame P:183   Avg QP:31.79  size: 35788
[libx264 @ 0x35ac120] frame B:314   Avg QP:33.18  size:  9035
[libx264 @ 0x35ac120] consecutive B-frames: 16.0%  0.8%  0.0% 83.2%
[libx264 @ 0x35ac120] mb I  I16..4: 30.9% 55.9% 13.2%
[libx264 @ 0x35ac120] mb P  I16..4:  2.7%  1.7%  0.0%  P16..4: 21.6%  5.6%  1.3%  0.0%  0.0%    skip:67.1%
[libx264 @ 0x35ac120] mb B  I16..4:  0.5%  0.2%  0.0%  B16..8:  8.5%  0.8%  0.0%  direct: 2.9%  skip:87.1%  L0:37.6% L1:59.9% BI: 2.5%
[libx264 @ 0x35ac120] final ratefactor: 25.86
[libx264 @ 0x35ac120] 8x8 transform intra:41.1% inter:44.4%
[libx264 @ 0x35ac120] coded y,uvDC,uvAC intra: 45.9% 35.4% 17.5% inter: 2.3% 2.4% 0.0%
[libx264 @ 0x35ac120] i16 v,h,dc,p: 35% 30% 27%  8%
[libx264 @ 0x35ac120] i8 v,h,dc,ddl,ddr,vr,hd,vl,hu: 10% 16% 54%  3%  3%  3%  4%  3%  4%
[libx264 @ 0x35ac120] i4 v,h,dc,ddl,ddr,vr,hd,vl,hu: 18% 28% 10%  7%  7%  6% 10%  6%  8%
[libx264 @ 0x35ac120] i8c dc,h,v,p: 72% 13% 13%  1%
[libx264 @ 0x35ac120] Weighted P-Frames: Y:0.5% UV:0.0%
[libx264 @ 0x35ac120] kb/s:8316.43
